<svg width="26" height="28" fill="none" xmlns="http://www.w3.org/2000/svg"><path d="M20.583 3.5H13a3.105 3.105 0 0 0-2.167.91 3.104 3.104 0 0 0-2.166-.91H1.083c-.287 0-.563.123-.766.342A1.214 1.214 0 0 0 0 4.667v17.5c0 .31.114.606.317.825.203.218.479.341.766.341h6.238a2.102 2.102 0 0 1 1.532.684l1.214 1.308c.01.01.023.014.033.024.093.094.197.175.318.229h.003c.264.118.56.118.825 0h.002c.122-.054.226-.136.319-.229.01-.01.022-.014.032-.024l1.215-1.308a2.102 2.102 0 0 1 1.531-.684h6.238c.288 0 .563-.123.766-.341.203-.22.318-.516.318-.825v-17.5c0-.31-.115-.606-.318-.825a1.046 1.046 0 0 0-.766-.342ZM19.5 21h-5.155a4.15 4.15 0 0 0-2.428.804V7c0-.643.485-1.167 1.083-1.167h6.5V21Z" fill="#F8FDFE"/></svg>